<?xml version="1.0" encoding="UTF-8"?>
<svg id="Lag_1" data-name="Lag 1" xmlns="http://www.w3.org/2000/svg" viewBox="0 0 845.77 819.19">
  <defs>
    <style>
      .cls-1 {
        fill: none;
        stroke: #1d1d1b;
        stroke-miterlimit: 10;
        stroke-width: 15px;
      }
    </style>
  </defs>
  <rect x="0" y="0" width="845.77" height="819.19" fill="white"/> <!-- White background -->
  <g id="HUS_B" data-name="HUS B">
    <path class="cls-1" d="m67.39,391.7l275.74-241.58h166.97s58.94-1.35,94.14,7.62c18.68,4.88,31.91,7.84,59.39,27.03,34.35,22.6,41.85,64.91,43.44,78.99,1.59,14.08,4.9,61.96-27.76,94.53-27.6,27.52-57.92,33.28-57.92,33.28,0,0,20.21,3.88,48.15,18.06,29.27,14.85,42.24,39.41,48.94,54.11,6.7,14.7,9.41,44.45,8.28,57.85-1.13,13.4,1.6,28.84-15.89,65.64-17.49,36.79-52.46,54.28-72,64.27-19.53,9.99-57.46,17.64-98.12,17.64H162.64v-277.44h-95.25Z"/>
  </g>
</svg>
